<svg xmlns="http://www.w3.org/2000/svg" xmlns:xlink="http://www.w3.org/1999/xlink" id="Layer_1" x="0px" y="0px" viewBox="0 0 130 21.1" style="enable-background:new 0 0 130 21.1;" xml:space="preserve"><style type="text/css">	.st0{fill-rule:evenodd;clip-rule:evenodd;fill:#114546;}</style><g id="XMLID_00000158020970961444873840000007949370251504784523_">	<path id="XMLID_00000093892551222761212770000000044216661351808399_" class="st0" d="M6.5,7.6L11.6,2c0.7-0.7,1.2-1.2,1.6-1.5  s0.8-0.4,1.3-0.4c0.7,0,1.3,0.2,1.8,0.7s0.8,1,0.9,1.6c0,0.1,0,0.3,0,0.5c0,0.4-0.1,0.8-0.3,1.1c-0.2,0.3-0.5,0.7-1,1.2L13,8.5  l4.8,7.6c0.3,0.5,0.5,0.9,0.6,1.4c0,0.1,0,0.3,0.1,0.5c0,0.6-0.2,1.1-0.5,1.5c-0.3,0.5-0.7,0.8-1.2,1.1c-0.5,0.3-1,0.4-1.6,0.4  c-1.2,0-2-0.5-2.6-1.4l-4.3-6.8l-1.8,2v2.8c0,0.7-0.2,1.3-0.4,1.8c-0.3,0.5-0.6,0.9-1.1,1.2C4.4,20.9,3.8,21,3.1,21  c-0.8,0-1.5-0.2-2-0.6s-0.9-1-1-1.8C0,18.2,0,17.9,0,17.6l0.2-14c0-1.1,0.3-1.9,0.9-2.6c0.6-0.6,1.4-0.9,2.3-0.9  c0.8,0,1.5,0.2,2,0.6s0.8,1,1,1.8c0.1,0.4,0.1,0.7,0.1,1V7.6z M31.7,17.9L31.7,17.9H25l-0.5,1.5c-0.2,0.5-0.5,0.9-1,1.2  c-0.5,0.3-1,0.4-1.6,0.4c-0.4,0-0.8-0.1-1.3-0.3c-0.4-0.2-0.7-0.4-1-0.8c-0.3-0.3-0.5-0.7-0.6-1.1c0-0.1,0-0.2,0-0.5  c0-0.4,0.1-0.8,0.2-1.3s0.4-1.3,0.8-2.4l4.4-11.9c0.3-0.9,0.7-1.5,1.2-2c0.5-0.4,1.1-0.6,1.9-0.6h2c0.8,0,1.4,0.2,1.9,0.6  s0.8,1.1,1.2,2l4.1,11.9c0.5,1.4,0.8,2.4,0.9,2.9c0.1,0.3,0.1,0.6,0.1,0.8c0,0.7-0.3,1.4-0.9,1.9c-0.6,0.5-1.3,0.7-2,0.7  c-0.6,0-1.1-0.1-1.6-0.4s-0.8-0.7-1-1.2L31.7,17.9z M30.5,13.9L30.5,13.9l-2.1-7.4h-0.1L26,13.9H30.5z M38.3,17.7L38.3,17.7  l0.2-13.4c0-1.3,0.3-2.3,0.9-2.9c0.6-0.6,1.5-0.9,2.8-0.9H48c2.3,0,4.2,0.4,5.7,1.2s2.4,2.1,2.8,3.9c0.1,0.5,0.2,1.2,0.2,1.9  c0,1.7-0.4,3.1-1.2,4.2c-0.8,1-1.8,1.8-3.1,2.2s-2.8,0.6-4.6,0.6h-3.2v3.3c0,1.1-0.3,1.9-0.8,2.5c-0.6,0.6-1.3,0.9-2.3,0.9  c-0.8,0-1.5-0.2-2-0.6s-0.8-1-1-1.7C38.3,18.4,38.3,18.1,38.3,17.7L38.3,17.7z M44.6,9.5L44.6,9.5h3.5c0.6,0,1.1-0.2,1.5-0.5  c0.4-0.4,0.6-0.9,0.7-1.5c0-0.3,0-0.4-0.1-0.5c-0.1-0.5-0.4-0.9-0.8-1.2c-0.4-0.3-0.9-0.4-1.6-0.4h-3.2L44.6,9.5z M68,14.9L68,14.9  c-0.1-0.4-0.3-0.7-0.5-0.9c-0.3-0.2-0.7-0.4-1.2-0.6L62,12.2c-1.4-0.4-2.4-1-3.2-1.7s-1.3-1.6-1.5-2.7c-0.1-0.4-0.1-0.8-0.1-1.2  c0-1.2,0.3-2.3,0.9-3.3c0.6-1,1.4-1.8,2.6-2.4C61.8,0.3,63.3,0,65,0c1.3,0,2.6,0.1,3.7,0.3C70,0.6,71,0.9,71.8,1.5  c0.9,0.5,1.4,1.3,1.6,2.1c0,0.2,0.1,0.4,0.1,0.7c0,0.8-0.3,1.4-0.8,1.9s-1.2,0.7-2,0.7c-0.5,0-0.8-0.1-1.1-0.3  c-0.3-0.2-0.6-0.5-1.1-0.9s-0.9-0.8-1.4-1s-1-0.3-1.7-0.3c-0.6,0-1.1,0.1-1.5,0.3c-0.4,0.2-0.6,0.6-0.6,1c0.1,0.4,0.3,0.8,0.6,1  c0.3,0.2,0.8,0.4,1.5,0.6l3.3,0.9c1,0.3,1.9,0.6,2.6,1c0.8,0.4,1.4,0.9,1.9,1.5s0.8,1.3,1,2.1c0.1,0.5,0.1,0.9,0.1,1.4  c0,1.5-0.4,2.8-1.2,3.8c-0.8,1-1.8,1.8-3.1,2.3c-1.3,0.5-2.6,0.7-4.1,0.7c-2.7,0-4.8-0.4-6.2-1.3s-2.2-1.9-2.5-3  c0-0.2-0.1-0.3-0.1-0.6c0-0.5,0.1-0.9,0.4-1.4c0.2-0.4,0.6-0.7,1-0.9s0.9-0.3,1.4-0.3s0.9,0.1,1.3,0.4c0.4,0.2,0.8,0.6,1.2,1.1  c0.5,0.5,0.9,0.9,1.4,1.1c0.5,0.3,1.1,0.4,1.7,0.4c0.7,0,1.3-0.1,1.8-0.4C67.8,15.9,68,15.5,68,14.9L68,14.9z M87.7,12.8L87.7,12.8  l0.1-9.2c0-1.1,0.3-1.9,0.9-2.6c0.6-0.6,1.4-0.9,2.4-0.9c0.8,0,1.5,0.2,2,0.6s0.9,1,1,1.8c0.1,0.4,0.1,0.7,0.1,1l-0.1,9.2  c0,1.5-0.3,2.8-0.8,3.8c-0.5,1.1-1.2,1.9-2,2.6c-0.9,0.7-1.9,1.1-3,1.4c-1.2,0.3-2.5,0.5-3.9,0.5c-2.5,0-4.6-0.5-6.2-1.4  c-1.6-1-2.7-2.5-3.1-4.6c-0.1-0.7-0.2-1.4-0.2-2.3L75,3.6c0-1.1,0.3-1.9,0.9-2.6c0.6-0.6,1.4-0.9,2.4-0.9c0.8,0,1.5,0.2,2,0.6  s0.9,1,1,1.8c0.1,0.4,0.1,0.7,0.1,1l-0.1,9.2c0,0.4,0,0.8,0.1,1.1c0.3,1.6,1.3,2.3,3.1,2.3c1.1,0,1.9-0.3,2.4-0.9  C87.4,14.7,87.7,13.9,87.7,12.8L87.7,12.8z M101.4,15.4L101.4,15.4h6.7c0.7,0,1.3,0.2,1.8,0.5c0.5,0.3,0.7,0.8,0.9,1.5  c0.1,0.3,0.1,0.5,0.1,0.6c0,0.8-0.3,1.5-0.8,1.9c-0.5,0.5-1.2,0.7-2,0.7h-9.5c-1,0-1.8-0.2-2.4-0.6s-0.9-1-1.1-1.9  C95,17.7,95,17.3,95,16.8l0.2-13.2c0-1.1,0.3-1.9,0.9-2.6c0.6-0.6,1.4-0.9,2.3-0.9c0.8,0,1.5,0.2,2,0.6s0.8,1,1,1.8  c0.1,0.4,0.1,0.7,0.1,1L101.4,15.4z M124.1,17.9L124.1,17.9h-6.7l-0.5,1.5c-0.2,0.5-0.5,0.9-1,1.2c-0.5,0.3-1,0.4-1.6,0.4  c-0.4,0-0.8-0.1-1.3-0.3c-0.4-0.2-0.7-0.4-1-0.8c-0.3-0.3-0.5-0.7-0.6-1.1c0-0.1,0-0.2,0-0.5c0-0.4,0.1-0.8,0.2-1.3  s0.4-1.3,0.8-2.4l4.4-11.9c0.3-0.9,0.7-1.5,1.2-2c0.5-0.4,1.1-0.6,1.9-0.6h2c0.8,0,1.4,0.2,1.9,0.6s0.8,1.1,1.2,2l4.1,11.9  c0.5,1.4,0.8,2.4,0.9,2.9c0.1,0.3,0.1,0.6,0.1,0.8c0,0.7-0.3,1.4-0.9,1.9c-0.6,0.5-1.3,0.7-2,0.7c-0.6,0-1.1-0.1-1.6-0.4  s-0.8-0.7-1-1.2L124.1,17.9z M123,13.9L123,13.9l-2.1-7.4h-0.1l-2.3,7.4H123z"></path></g></svg>