<svg xmlns="http://www.w3.org/2000/svg" viewBox="0 0 20 20" width="20px" height="20px"><defs><style>.a{fill:#fff;}.b{fill:#b0b0b0;}</style></defs><g transform="translate(-324 -897)"><circle class="a" cx="10" cy="10" r="10" transform="translate(324 897)"/><path class="b" d="M-1980,20a10.011,10.011,0,0,1-10-10,10.011,10.011,0,0,1,10-10,10.011,10.011,0,0,1,10,10A10.011,10.011,0,0,1-1980,20Zm0-18a8.009,8.009,0,0,0-8,8,8.009,8.009,0,0,0,8,8,8.009,8.009,0,0,0,8-8A8.009,8.009,0,0,0-1980,2Z" transform="translate(2314 897)"/></g></svg>
